<svg xmlns="http://www.w3.org/2000/svg" width="410" height="404" viewBox="0 0 410 404" fill="none">
  <path d="M399.641 59.5246L215.643 388.877C209.164 400.509 192.136 400.54 185.617 388.926L10.3949 59.5553C3.32273 46.7446 13.9808 31.5143 28.1509 33.2439L205.223 54.8336C206.398 54.9787 207.585 54.9785 208.76 54.833L381.861 33.3193C395.997 31.5651 406.67 46.6592 399.64 59.5246H399.641Z" fill="url(#paint0_linear)"/>
  <path d="M292.965 1.5744L156.801 19.4252C154.563 19.7225 152.699 21.3121 152.12 23.4905L112.366 174.704C111.69 177.309 113.875 179.747 116.558 179.386L167.204 172.44C170.063 172.047 172.572 174.476 172.107 177.32L160.69 246.978C160.201 249.979 162.997 252.451 165.888 251.602L196.33 242.622C199.228 241.77 202.031 244.254 201.525 247.26L186.772 334.564C185.967 339.38 192.605 341.621 195.135 337.336L197.461 333.315L324.383 102.203C326.054 99.1207 323.384 95.4009 319.948 95.8795L268.029 103.018C265.049 103.435 262.682 100.752 263.412 97.8255L301.398 40.2979C303.124 37.6161 300.793 34.1585 297.594 34.6065L245.994 41.9648C243.041 42.3762 240.664 39.7958 241.311 36.9131L249.531 1.97704C250.219 -1.08243 247.521 -3.54456 244.61 -2.9406L207.729 4.78876C205.811 5.17458 203.998 3.57657 204.289 1.6289L205.191 -4.4781C205.501 -6.56608 207.519 -8.02141 209.615 -7.74965L292.965 1.5744Z" fill="url(#paint1_linear)"/>
  <defs>
    <linearGradient id="paint0_linear" x1="6.00017" y1="32.9999" x2="235" y2="344" gradientUnits="userSpaceOnUse">
      <stop stop-color="#2BF0FF"/>
      <stop offset="1" stop-color="#826BFF"/>
    </linearGradient>
    <linearGradient id="paint1_linear" x1="194.651" y1="-7.48616" x2="236.076" y2="327.189" gradientUnits="userSpaceOnUse">
      <stop stop-color="#2BF0FF"/>
      <stop offset="1" stop-color="#826BFF"/>
    </linearGradient>
  </defs>
</svg>
